<?xml version="1.0" encoding="utf-8"?>
<!-- Generator: Adobe Illustrator 26.0.1, SVG Export Plug-In . SVG Version: 6.00 Build 0)  -->
<svg version="1.2" baseProfile="tiny" id="Layer_1" xmlns="http://www.w3.org/2000/svg" xmlns:xlink="http://www.w3.org/1999/xlink"
	 x="0px" y="0px" viewBox="0 0 48 48" overflow="visible" xml:space="preserve">
<g>
	<linearGradient id="SVGID_1_" gradientUnits="userSpaceOnUse" x1="11.286" y1="7.4596" x2="52.6541" y2="51.2808">
		<stop  offset="0.121" style="stop-color:#22DCFD"/>
		<stop  offset="0.5369" style="stop-color:#1C91E2"/>
	</linearGradient>
	<path fill-rule="evenodd" fill="url(#SVGID_1_)" d="M15.56,2c-0.77,2.99,0.33,5.68,2.09,8.35h7.7c2.66,0,4.63,0.11,5.93,0.33
		c1.31,0.23,2.47,0.69,3.5,1.38c1.03,0.7,1.88,1.63,2.57,2.79c0.69,1.16,1.03,2.47,1.03,3.91c0,1.56-0.42,3-1.26,4.3
		c-0.84,1.31-1.99,2.28-3.43,2.94c2.03,0.6,3.59,1.61,4.69,3.04c1.09,1.43,1.64,3.12,1.64,5.05c0,1.53-0.35,3.01-1.06,4.45
		c-0.71,1.44-1.67,2.59-2.91,3.46c-1.22,0.86-2.73,1.39-4.53,1.59c-0.81,0.08-2.46,0.15-4.94,0.19c-2.12-2.11-4.17-4.29-5.39-5.62
		h3.83c2.43,0,3.98-0.07,4.63-0.2c1-0.19,1.82-0.63,2.45-1.34c0.63-0.72,0.95-1.66,0.95-2.85c0-1.01-0.24-1.86-0.73-2.56
		c-0.48-0.7-1.19-1.21-2.11-1.53c-0.68-0.24-1.96-0.39-3.83-0.45c-0.48,3.12-2.14,6.26-5.49,8.97c1.43-1.86,2.3-3.61,2.75-5.27
		l-7.14,0.02c-0.28-0.53-0.55-1.08-0.8-1.63l8.25-0.02c0.09-0.86,0.08-1.69-0.03-2.51L14.7,28.8c-0.17-0.53-0.32-1.08-0.44-1.63
		l9.33-0.03c-0.22-0.83-0.52-1.64-0.88-2.44l-8.75,0.02c-0.02-0.53,0-1.08,0.06-1.63l7.88-0.02c-0.45-0.84-0.96-1.68-1.48-2.51
		l-5.9,0.02c0.16-0.54,0.36-1.08,0.6-1.64l4.25-0.01C16.08,13.81,12.68,8.63,15.56,2L15.56,2z M21.81,15.92
		c1.78,2.38,3.45,4.88,4.23,7.69c0.99-0.02,1.67-0.05,2.03-0.09c1.15-0.13,2.06-0.53,2.73-1.19c0.66-0.66,0.99-1.53,0.99-2.6
		c0-1.04-0.29-1.87-0.86-2.52c-0.57-0.65-1.42-1.04-2.54-1.17c-0.67-0.08-2.59-0.12-5.76-0.12H21.81z"/>
	
		<linearGradient id="SVGID_00000091727618917823501080000010847067373813438396_" gradientUnits="userSpaceOnUse" x1="26.927" y1="43.8604" x2="34.2846" y2="30.9737">
		<stop  offset="0.121" style="stop-color:#22DCFD"/>
		<stop  offset="0.5369" style="stop-color:#1C91E2"/>
	</linearGradient>
	<path fill-rule="evenodd" fill="url(#SVGID_00000091727618917823501080000010847067373813438396_)" d="M39.72,36.44
		c-0.18,0.71-0.43,1.41-0.77,2.1c-0.71,1.44-1.67,2.59-2.91,3.46c-1.22,0.86-2.73,1.39-4.53,1.59c-0.81,0.08-2.46,0.15-4.94,0.19
		c-2.12-2.11-4.17-4.29-5.39-5.62h3.83c2.43,0,3.98-0.07,4.63-0.2c1-0.19,1.82-0.63,2.45-1.34c0.63-0.72,0.95-1.66,0.95-2.85
		c0-1.01-0.24-1.86-0.73-2.56c-0.48-0.7-1.19-1.21-2.11-1.53C30.2,29.67,36.54,31.12,39.72,36.44z"/>
	
		<linearGradient id="SVGID_00000015331884983483541330000018048495465783364010_" gradientUnits="userSpaceOnUse" x1="31.3742" y1="25.5507" x2="33.6315" y2="14.1506">
		<stop  offset="0.121" style="stop-color:#22DCFD"/>
		<stop  offset="0.5369" style="stop-color:#1C91E2"/>
	</linearGradient>
	<path fill-rule="evenodd" fill="url(#SVGID_00000015331884983483541330000018048495465783364010_)" d="M37.9,21.49
		c-0.2,0.54-0.46,1.07-0.79,1.57c-0.84,1.31-1.99,2.28-3.43,2.94c-1.13-0.37-4.83-1.15-7.36-0.98c-0.02-0.21-0.17-1.01-0.28-1.41
		c0.99-0.02,1.67-0.05,2.03-0.09c1.15-0.13,2.06-0.53,2.73-1.19c0.66-0.66,0.99-1.53,0.99-2.6c0-1.04-0.29-1.87-0.86-2.52
		c-0.57-0.65-1.42-1.04-2.54-1.17C30.53,16.12,35.99,16.51,37.9,21.49z"/>
	
		<linearGradient id="SVGID_00000164479318457318711990000014935661727304809092_" gradientUnits="userSpaceOnUse" x1="20.0091" y1="1.9388" x2="19.4913" y2="34.2447">
		<stop  offset="0.121" style="stop-color:#22DCFD"/>
		<stop  offset="0.5369" style="stop-color:#1C91E2"/>
	</linearGradient>
	<path fill-rule="evenodd" fill="url(#SVGID_00000164479318457318711990000014935661727304809092_)" d="M20.89,38.19
		c1.43-1.86,2.3-3.61,2.75-5.27l-7.14,0.02c-0.28-0.53-0.55-1.08-0.8-1.63l8.25-0.02c0.09-0.86,0.08-1.69-0.03-2.51L14.7,28.8
		c-0.17-0.53-0.32-1.08-0.44-1.63l9.33-0.03c-0.22-0.83-0.52-1.64-0.88-2.44l-8.75,0.02c-0.02-0.53,0-1.08,0.06-1.63l7.88-0.02
		c-0.45-0.84-0.96-1.68-1.48-2.51l-5.9,0.02c0.16-0.54,0.36-1.08,0.6-1.64l4.25-0.01c-3.23-5.01-6.55-10.08-3.99-16.51
		C11.99,14.84,34.4,24.4,20.89,38.19z"/>
	
		<linearGradient id="SVGID_00000013171266727616508430000015305702799194492299_" gradientUnits="userSpaceOnUse" x1="12.611" y1="28.25" x2="33.4994" y2="58.5139">
		<stop  offset="0.121" style="stop-color:#22DCFD"/>
		<stop  offset="0.5369" style="stop-color:#1C91E2"/>
	</linearGradient>
	<path fill-rule="evenodd" fill="url(#SVGID_00000013171266727616508430000015305702799194492299_)" d="M27.1,47
		c-1.5-0.82-3.34-1.9-5.25-3.19h-9.88v-9.26C8.48,29.25,8,22.9,15.7,16.23C6.15,29.34,21.43,42.15,27.1,47z"/>
	
		<linearGradient id="SVGID_00000137112307510589911320000014213856230675157183_" gradientUnits="userSpaceOnUse" x1="6.6838" y1="13.9997" x2="25.4747" y2="40.2153">
		<stop  offset="0.121" style="stop-color:#22DCFD"/>
		<stop  offset="0.5369" style="stop-color:#1C91E2"/>
	</linearGradient>
	<path fill-rule="evenodd" fill="url(#SVGID_00000137112307510589911320000014213856230675157183_)" d="M27.1,47
		C17.71,40.68,3.54,27.29,15.7,16.23C6.15,29.34,21.43,42.15,27.1,47z"/>
	
		<linearGradient id="SVGID_00000026164808563908566850000011891802403410732445_" gradientUnits="userSpaceOnUse" x1="10.7594" y1="12.7859" x2="14.0395" y2="12.7859">
		<stop  offset="0.121" style="stop-color:#22DCFD"/>
		<stop  offset="0.5369" style="stop-color:#1C91E2"/>
	</linearGradient>
	<path fill-rule="evenodd" fill="url(#SVGID_00000026164808563908566850000011891802403410732445_)" d="M12.4,11.15
		c0.91,0,1.64,0.73,1.64,1.64c0,0.91-0.73,1.64-1.64,1.64c-0.91,0-1.64-0.73-1.64-1.64C10.76,11.88,11.49,11.15,12.4,11.15z"/>
	
		<linearGradient id="SVGID_00000048498753707840760990000004274127423530594441_" gradientUnits="userSpaceOnUse" x1="9.7813" y1="17.346" x2="11.5553" y2="17.346">
		<stop  offset="0.121" style="stop-color:#22DCFD"/>
		<stop  offset="0.5369" style="stop-color:#1C91E2"/>
	</linearGradient>
	<path fill-rule="evenodd" fill="url(#SVGID_00000048498753707840760990000004274127423530594441_)" d="M10.67,16.46
		c0.49,0,0.89,0.4,0.89,0.89c0,0.49-0.4,0.89-0.89,0.89c-0.49,0-0.89-0.4-0.89-0.89C9.78,16.86,10.18,16.46,10.67,16.46z"/>
	
		<linearGradient id="SVGID_00000016784868857413580900000004966420647779724166_" gradientUnits="userSpaceOnUse" x1="27.9897" y1="45.7748" x2="29.764" y2="45.7748">
		<stop  offset="0.121" style="stop-color:#22DCFD"/>
		<stop  offset="0.5369" style="stop-color:#1C91E2"/>
	</linearGradient>
	<path fill-rule="evenodd" fill="url(#SVGID_00000016784868857413580900000004966420647779724166_)" d="M28.88,44.89
		c0.49,0,0.89,0.4,0.89,0.89c0,0.49-0.4,0.89-0.89,0.89c-0.49,0-0.89-0.4-0.89-0.89C27.99,45.28,28.39,44.89,28.88,44.89z"/>
	
		<linearGradient id="SVGID_00000127031429006612317980000010472596157558643614_" gradientUnits="userSpaceOnUse" x1="31.0667" y1="44.7198" x2="32.3319" y2="44.7198">
		<stop  offset="0.121" style="stop-color:#22DCFD"/>
		<stop  offset="0.5369" style="stop-color:#1C91E2"/>
	</linearGradient>
	<path fill-rule="evenodd" fill="url(#SVGID_00000127031429006612317980000010472596157558643614_)" d="M31.7,44.09
		c0.35,0,0.63,0.28,0.63,0.63c0,0.35-0.28,0.63-0.63,0.63c-0.35,0-0.63-0.28-0.63-0.63C31.07,44.37,31.35,44.09,31.7,44.09z"/>
</g>
</svg>
