<?xml version="1.0" encoding="utf-8"?>
<!-- Generator: Adobe Illustrator 26.0.1, SVG Export Plug-In . SVG Version: 6.00 Build 0)  -->
<svg version="1.2" baseProfile="tiny" id="Layer_1" xmlns="http://www.w3.org/2000/svg" xmlns:xlink="http://www.w3.org/1999/xlink"
	 x="0px" y="0px" viewBox="0 0 32 32" overflow="visible" xml:space="preserve">
<g>
	<linearGradient id="SVGID_1_" gradientUnits="userSpaceOnUse" x1="7.4477" y1="4.6398" x2="35.0264" y2="33.8538">
		<stop  offset="0.121" style="stop-color:#22DCFD"/>
		<stop  offset="0.5369" style="stop-color:#1C91E2"/>
	</linearGradient>
	<path fill-rule="evenodd" fill="url(#SVGID_1_)" d="M10.3,1c-0.51,2,0.22,3.79,1.39,5.57h5.13c1.77,0,3.08,0.07,3.95,0.22
		c0.87,0.15,1.65,0.46,2.33,0.92c0.69,0.47,1.26,1.09,1.71,1.86c0.46,0.77,0.69,1.65,0.69,2.61c0,1.04-0.28,2-0.84,2.87
		c-0.56,0.87-1.32,1.52-2.28,1.96c1.36,0.4,2.39,1.07,3.13,2.03c0.73,0.96,1.09,2.08,1.09,3.37c0,1.02-0.23,2-0.71,2.96
		c-0.47,0.96-1.12,1.73-1.94,2.31c-0.81,0.57-1.82,0.92-3.02,1.06c-0.54,0.06-1.64,0.1-3.3,0.13c-1.42-1.4-2.78-2.86-3.6-3.75h2.56
		c1.62,0,2.65-0.05,3.09-0.13c0.67-0.12,1.21-0.42,1.64-0.89c0.42-0.48,0.63-1.11,0.63-1.9c0-0.68-0.16-1.24-0.49-1.71
		c-0.32-0.47-0.79-0.81-1.41-1.02c-0.45-0.16-1.31-0.26-2.55-0.3c-0.32,2.08-1.43,4.17-3.66,5.98c0.96-1.24,1.54-2.41,1.83-3.52
		l-4.76,0.01c-0.19-0.35-0.37-0.72-0.54-1.09l5.5-0.01c0.06-0.57,0.05-1.13-0.02-1.67l-6.15,0.02c-0.11-0.35-0.21-0.72-0.29-1.09
		l6.22-0.02c-0.15-0.55-0.35-1.09-0.59-1.63l-5.83,0.02c-0.01-0.36,0-0.72,0.04-1.09l5.26-0.01c-0.3-0.56-0.64-1.12-0.99-1.67
		l-3.93,0.01c0.11-0.36,0.24-0.72,0.4-1.09l2.84-0.01C10.64,8.88,8.38,5.42,10.3,1L10.3,1z M14.46,10.28
		c1.19,1.58,2.3,3.25,2.82,5.13c0.66-0.01,1.11-0.03,1.35-0.06c0.77-0.09,1.38-0.35,1.82-0.79c0.44-0.44,0.66-1.02,0.66-1.73
		c0-0.69-0.19-1.25-0.57-1.68c-0.38-0.43-0.94-0.69-1.69-0.78c-0.45-0.05-1.73-0.08-3.84-0.08H14.46z"/>
	
		<linearGradient id="SVGID_00000000905213268042597650000003609001686256046486_" gradientUnits="userSpaceOnUse" x1="17.8751" y1="28.9069" x2="22.7801" y2="20.3158">
		<stop  offset="0.121" style="stop-color:#22DCFD"/>
		<stop  offset="0.5369" style="stop-color:#1C91E2"/>
	</linearGradient>
	<path fill-rule="evenodd" fill="url(#SVGID_00000000905213268042597650000003609001686256046486_)" d="M26.41,23.96
		c-0.12,0.47-0.29,0.94-0.52,1.4c-0.47,0.96-1.12,1.73-1.94,2.31c-0.81,0.57-1.82,0.92-3.02,1.06c-0.54,0.06-1.64,0.1-3.3,0.13
		c-1.42-1.4-2.78-2.86-3.6-3.75h2.56c1.62,0,2.65-0.05,3.09-0.13c0.67-0.12,1.21-0.42,1.64-0.89c0.42-0.48,0.63-1.11,0.63-1.9
		c0-0.68-0.16-1.24-0.49-1.71c-0.32-0.47-0.79-0.81-1.41-1.02C20.06,19.45,24.28,20.42,26.41,23.96z"/>
	
		<linearGradient id="SVGID_00000125588129205602790540000002310782167470458030_" gradientUnits="userSpaceOnUse" x1="20.8398" y1="16.7005" x2="22.3447" y2="9.1004">
		<stop  offset="0.121" style="stop-color:#22DCFD"/>
		<stop  offset="0.5369" style="stop-color:#1C91E2"/>
	</linearGradient>
	<path fill-rule="evenodd" fill="url(#SVGID_00000125588129205602790540000002310782167470458030_)" d="M25.19,13.99
		c-0.13,0.36-0.31,0.71-0.52,1.05c-0.56,0.87-1.32,1.52-2.28,1.96c-0.76-0.25-3.22-0.77-4.91-0.65c-0.02-0.14-0.11-0.67-0.19-0.94
		c0.66-0.01,1.11-0.03,1.35-0.06c0.77-0.09,1.38-0.35,1.82-0.79c0.44-0.44,0.66-1.02,0.66-1.73c0-0.69-0.19-1.25-0.57-1.68
		c-0.38-0.43-0.94-0.69-1.69-0.78C20.28,10.41,23.92,10.68,25.19,13.99z"/>
	
		<linearGradient id="SVGID_00000172425638044280372520000011015806014030703262_" gradientUnits="userSpaceOnUse" x1="13.2631" y1="0.9592" x2="12.9179" y2="22.4965">
		<stop  offset="0.121" style="stop-color:#22DCFD"/>
		<stop  offset="0.5369" style="stop-color:#1C91E2"/>
	</linearGradient>
	<path fill-rule="evenodd" fill="url(#SVGID_00000172425638044280372520000011015806014030703262_)" d="M13.85,25.13
		c0.96-1.24,1.54-2.41,1.83-3.52l-4.76,0.01c-0.19-0.35-0.37-0.72-0.54-1.09l5.5-0.01c0.06-0.57,0.05-1.13-0.02-1.67l-6.15,0.02
		c-0.11-0.35-0.21-0.72-0.29-1.09l6.22-0.02c-0.15-0.55-0.35-1.09-0.59-1.63l-5.83,0.02c-0.01-0.36,0-0.72,0.04-1.09l5.26-0.01
		c-0.3-0.56-0.64-1.12-0.99-1.67l-3.93,0.01c0.11-0.36,0.24-0.72,0.4-1.09l2.84-0.01c-2.16-3.34-4.37-6.72-2.66-11.01
		C7.92,9.56,22.86,15.93,13.85,25.13z"/>
	
		<linearGradient id="SVGID_00000147937474726394801170000016846995588764518036_" gradientUnits="userSpaceOnUse" x1="8.3311" y1="18.5" x2="22.2566" y2="38.6759">
		<stop  offset="0.121" style="stop-color:#22DCFD"/>
		<stop  offset="0.5369" style="stop-color:#1C91E2"/>
	</linearGradient>
	<path fill-rule="evenodd" fill="url(#SVGID_00000147937474726394801170000016846995588764518036_)" d="M17.99,31
		c-1-0.55-2.22-1.27-3.5-2.13H7.91V22.7c-2.33-3.53-2.65-7.77,2.48-12.21C4.02,19.23,14.21,27.77,17.99,31z"/>
	
		<linearGradient id="SVGID_00000115488671154329461780000003111983210311191698_" gradientUnits="userSpaceOnUse" x1="4.3796" y1="8.9998" x2="16.9069" y2="26.4769">
		<stop  offset="0.121" style="stop-color:#22DCFD"/>
		<stop  offset="0.5369" style="stop-color:#1C91E2"/>
	</linearGradient>
	<path fill-rule="evenodd" fill="url(#SVGID_00000115488671154329461780000003111983210311191698_)" d="M17.99,31
		c-6.26-4.21-15.71-13.14-7.61-20.51C4.02,19.23,14.21,27.77,17.99,31z"/>
	
		<linearGradient id="SVGID_00000077319785983640009430000016589551141848548010_" gradientUnits="userSpaceOnUse" x1="7.0967" y1="8.1906" x2="9.2834" y2="8.1906">
		<stop  offset="0.121" style="stop-color:#22DCFD"/>
		<stop  offset="0.5369" style="stop-color:#1C91E2"/>
	</linearGradient>
	<path fill-rule="evenodd" fill="url(#SVGID_00000077319785983640009430000016589551141848548010_)" d="M8.19,7.1
		c0.6,0,1.09,0.49,1.09,1.09c0,0.6-0.49,1.09-1.09,1.09c-0.6,0-1.09-0.49-1.09-1.09C7.1,7.59,7.59,7.1,8.19,7.1z"/>
	
		<linearGradient id="SVGID_00000123417371886879848950000005303652684465785252_" gradientUnits="userSpaceOnUse" x1="6.4446" y1="11.2306" x2="7.6273" y2="11.2306">
		<stop  offset="0.121" style="stop-color:#22DCFD"/>
		<stop  offset="0.5369" style="stop-color:#1C91E2"/>
	</linearGradient>
	<path fill-rule="evenodd" fill="url(#SVGID_00000123417371886879848950000005303652684465785252_)" d="M7.04,10.64
		c0.33,0,0.59,0.26,0.59,0.59c0,0.33-0.26,0.59-0.59,0.59c-0.33,0-0.59-0.26-0.59-0.59C6.44,10.9,6.71,10.64,7.04,10.64z"/>
	
		<linearGradient id="SVGID_00000123441563846630981040000006343372786988179887_" gradientUnits="userSpaceOnUse" x1="18.5836" y1="30.1832" x2="19.7664" y2="30.1832">
		<stop  offset="0.121" style="stop-color:#22DCFD"/>
		<stop  offset="0.5369" style="stop-color:#1C91E2"/>
	</linearGradient>
	<path fill-rule="evenodd" fill="url(#SVGID_00000123441563846630981040000006343372786988179887_)" d="M19.17,29.59
		c0.33,0,0.59,0.26,0.59,0.59c0,0.33-0.26,0.59-0.59,0.59c-0.33,0-0.59-0.26-0.59-0.59C18.58,29.86,18.85,29.59,19.17,29.59z"/>
	
		<linearGradient id="SVGID_00000183217305030359991370000002920469659204082578_" gradientUnits="userSpaceOnUse" x1="20.6349" y1="29.4798" x2="21.4783" y2="29.4798">
		<stop  offset="0.121" style="stop-color:#22DCFD"/>
		<stop  offset="0.5369" style="stop-color:#1C91E2"/>
	</linearGradient>
	<path fill-rule="evenodd" fill="url(#SVGID_00000183217305030359991370000002920469659204082578_)" d="M21.06,29.06
		c0.23,0,0.42,0.19,0.42,0.42c0,0.23-0.19,0.42-0.42,0.42c-0.23,0-0.42-0.19-0.42-0.42C20.63,29.25,20.82,29.06,21.06,29.06z"/>
</g>
</svg>
