<?xml version="1.0" encoding="utf-8"?>
<!-- Generator: Adobe Illustrator 26.0.1, SVG Export Plug-In . SVG Version: 6.00 Build 0)  -->
<svg version="1.2" baseProfile="tiny" id="Layer_1" xmlns="http://www.w3.org/2000/svg" xmlns:xlink="http://www.w3.org/1999/xlink"
	 x="0px" y="0px" viewBox="0 0 16 16" overflow="visible" xml:space="preserve">
<g>
	<linearGradient id="SVGID_1_" gradientUnits="userSpaceOnUse" x1="4.0976" y1="2.6986" x2="16.9676" y2="16.3318">
		<stop  offset="0.121" style="stop-color:#22DCFD"/>
		<stop  offset="0.5369" style="stop-color:#1C91E2"/>
	</linearGradient>
	<path fill-rule="evenodd" fill="url(#SVGID_1_)" d="M5.43,1c-0.24,0.93,0.1,1.77,0.65,2.6h2.39c0.83,0,1.44,0.03,1.84,0.1
		c0.41,0.07,0.77,0.21,1.09,0.43c0.32,0.22,0.59,0.51,0.8,0.87c0.21,0.36,0.32,0.77,0.32,1.22c0,0.48-0.13,0.93-0.39,1.34
		c-0.26,0.41-0.62,0.71-1.07,0.91c0.63,0.19,1.12,0.5,1.46,0.95c0.34,0.45,0.51,0.97,0.51,1.57c0,0.48-0.11,0.94-0.33,1.38
		c-0.22,0.45-0.52,0.81-0.9,1.08c-0.38,0.27-0.85,0.43-1.41,0.49c-0.25,0.03-0.77,0.05-1.54,0.06c-0.66-0.66-1.3-1.34-1.68-1.75
		h1.19c0.76,0,1.24-0.02,1.44-0.06c0.31-0.06,0.57-0.2,0.76-0.42c0.2-0.22,0.3-0.52,0.3-0.89c0-0.32-0.08-0.58-0.23-0.8
		c-0.15-0.22-0.37-0.38-0.66-0.48C9.77,9.53,9.37,9.49,8.79,9.47c-0.15,0.97-0.67,1.95-1.71,2.79c0.45-0.58,0.72-1.12,0.85-1.64
		l-2.22,0.01c-0.09-0.17-0.17-0.33-0.25-0.51l2.57-0.01c0.03-0.27,0.02-0.53-0.01-0.78L5.16,9.34C5.11,9.17,5.06,9,5.02,8.83
		l2.9-0.01C7.86,8.56,7.76,8.31,7.65,8.06L4.93,8.07c-0.01-0.17,0-0.34,0.02-0.51L7.4,7.56C7.26,7.29,7.1,7.03,6.94,6.77L5.1,6.78
		c0.05-0.17,0.11-0.34,0.19-0.51l1.32,0C5.59,4.68,4.53,3.06,5.43,1L5.43,1z M7.37,5.33c0.56,0.74,1.07,1.52,1.32,2.39
		C9,7.72,9.21,7.71,9.32,7.69c0.36-0.04,0.64-0.16,0.85-0.37c0.21-0.21,0.31-0.47,0.31-0.81c0-0.32-0.09-0.58-0.27-0.78
		c-0.18-0.2-0.44-0.32-0.79-0.36C9.21,5.34,8.61,5.33,7.63,5.33H7.37z"/>
	
		<linearGradient id="SVGID_00000139286706305767789090000016396386660032039833_" gradientUnits="userSpaceOnUse" x1="8.9637" y1="14.0232" x2="11.2527" y2="10.014">
		<stop  offset="0.121" style="stop-color:#22DCFD"/>
		<stop  offset="0.5369" style="stop-color:#1C91E2"/>
	</linearGradient>
	<path fill-rule="evenodd" fill="url(#SVGID_00000139286706305767789090000016396386660032039833_)" d="M12.94,11.71
		c-0.05,0.22-0.14,0.44-0.24,0.65c-0.22,0.45-0.52,0.81-0.9,1.08c-0.38,0.27-0.85,0.43-1.41,0.49c-0.25,0.03-0.77,0.05-1.54,0.06
		c-0.66-0.66-1.3-1.34-1.68-1.75h1.19c0.76,0,1.24-0.02,1.44-0.06c0.31-0.06,0.57-0.2,0.76-0.42c0.2-0.22,0.3-0.52,0.3-0.89
		c0-0.32-0.08-0.58-0.23-0.8c-0.15-0.22-0.37-0.38-0.66-0.48C9.98,9.61,11.95,10.06,12.94,11.71z"/>
	
		<linearGradient id="SVGID_00000040557539441946437170000002005747471698639807_" gradientUnits="userSpaceOnUse" x1="10.3472" y1="8.3269" x2="11.0495" y2="4.7802">
		<stop  offset="0.121" style="stop-color:#22DCFD"/>
		<stop  offset="0.5369" style="stop-color:#1C91E2"/>
	</linearGradient>
	<path fill-rule="evenodd" fill="url(#SVGID_00000040557539441946437170000002005747471698639807_)" d="M12.38,7.06
		c-0.06,0.17-0.14,0.33-0.24,0.49c-0.26,0.41-0.62,0.71-1.07,0.91c-0.35-0.12-1.5-0.36-2.29-0.3C8.77,8.1,8.72,7.85,8.69,7.72
		C9,7.72,9.21,7.71,9.32,7.69c0.36-0.04,0.64-0.16,0.85-0.37c0.21-0.21,0.31-0.47,0.31-0.81c0-0.32-0.09-0.58-0.27-0.78
		c-0.18-0.2-0.44-0.32-0.79-0.36C10.09,5.39,11.78,5.52,12.38,7.06z"/>
	
		<linearGradient id="SVGID_00000038390182049756753970000008731872288667299004_" gradientUnits="userSpaceOnUse" x1="6.8114" y1="0.981" x2="6.6503" y2="11.0317">
		<stop  offset="0.121" style="stop-color:#22DCFD"/>
		<stop  offset="0.5369" style="stop-color:#1C91E2"/>
	</linearGradient>
	<path fill-rule="evenodd" fill="url(#SVGID_00000038390182049756753970000008731872288667299004_)" d="M7.09,12.26
		c0.45-0.58,0.72-1.12,0.85-1.64l-2.22,0.01c-0.09-0.17-0.17-0.33-0.25-0.51l2.57-0.01c0.03-0.27,0.02-0.53-0.01-0.78L5.16,9.34
		C5.11,9.17,5.06,9,5.02,8.83l2.9-0.01C7.86,8.56,7.76,8.31,7.65,8.06L4.93,8.07c-0.01-0.17,0-0.34,0.02-0.51L7.4,7.56
		C7.26,7.29,7.1,7.03,6.94,6.77L5.1,6.78c0.05-0.17,0.11-0.34,0.19-0.51l1.32,0C5.61,4.71,4.58,3.13,5.37,1.13
		C4.32,4.99,11.29,7.97,7.09,12.26z"/>
	
		<linearGradient id="SVGID_00000034773913176806605600000010234927601928015272_" gradientUnits="userSpaceOnUse" x1="4.5098" y1="9.1667" x2="11.0084" y2="18.5821">
		<stop  offset="0.121" style="stop-color:#22DCFD"/>
		<stop  offset="0.5369" style="stop-color:#1C91E2"/>
	</linearGradient>
	<path fill-rule="evenodd" fill="url(#SVGID_00000034773913176806605600000010234927601928015272_)" d="M9.02,15
		c-0.47-0.26-1.04-0.59-1.63-0.99H4.31v-2.88C3.23,9.48,3.08,7.5,5.47,5.43C2.5,9.51,7.25,13.49,9.02,15z"/>
	
		<linearGradient id="SVGID_00000060004923947265806990000002066077340338587052_" gradientUnits="userSpaceOnUse" x1="2.6658" y1="4.7332" x2="8.5118" y2="12.8892">
		<stop  offset="0.121" style="stop-color:#22DCFD"/>
		<stop  offset="0.5369" style="stop-color:#1C91E2"/>
	</linearGradient>
	<path fill-rule="evenodd" fill="url(#SVGID_00000060004923947265806990000002066077340338587052_)" d="M9.02,15
		C6.1,13.03,1.69,8.87,5.47,5.43C2.5,9.51,7.25,13.49,9.02,15z"/>
	
		<linearGradient id="SVGID_00000043437076763006808050000000102842790867335312_" gradientUnits="userSpaceOnUse" x1="3.9338" y1="4.3556" x2="4.9542" y2="4.3556">
		<stop  offset="0.121" style="stop-color:#22DCFD"/>
		<stop  offset="0.5369" style="stop-color:#1C91E2"/>
	</linearGradient>
	<path fill-rule="evenodd" fill="url(#SVGID_00000043437076763006808050000000102842790867335312_)" d="M4.44,3.85
		c0.28,0,0.51,0.23,0.51,0.51c0,0.28-0.23,0.51-0.51,0.51c-0.28,0-0.51-0.23-0.51-0.51C3.93,4.07,4.16,3.85,4.44,3.85z"/>
	
		<linearGradient id="SVGID_00000008132437765706056040000003201986991481813924_" gradientUnits="userSpaceOnUse" x1="3.6295" y1="5.7743" x2="4.1814" y2="5.7743">
		<stop  offset="0.121" style="stop-color:#22DCFD"/>
		<stop  offset="0.5369" style="stop-color:#1C91E2"/>
	</linearGradient>
	<path fill-rule="evenodd" fill="url(#SVGID_00000008132437765706056040000003201986991481813924_)" d="M3.91,5.5
		c0.15,0,0.28,0.12,0.28,0.28c0,0.15-0.12,0.28-0.28,0.28c-0.15,0-0.28-0.12-0.28-0.28C3.63,5.62,3.75,5.5,3.91,5.5z"/>
	
		<linearGradient id="SVGID_00000154416252464022810230000003728753739066090424_" gradientUnits="userSpaceOnUse" x1="9.2943" y1="14.6188" x2="9.8463" y2="14.6188">
		<stop  offset="0.121" style="stop-color:#22DCFD"/>
		<stop  offset="0.5369" style="stop-color:#1C91E2"/>
	</linearGradient>
	<path fill-rule="evenodd" fill="url(#SVGID_00000154416252464022810230000003728753739066090424_)" d="M9.57,14.34
		c0.15,0,0.28,0.12,0.28,0.28c0,0.15-0.12,0.28-0.28,0.28c-0.15,0-0.28-0.12-0.28-0.28C9.29,14.47,9.42,14.34,9.57,14.34z"/>
	
		<linearGradient id="SVGID_00000013189060033425044700000008933146529028016793_" gradientUnits="userSpaceOnUse" x1="10.2516" y1="14.2906" x2="10.6452" y2="14.2906">
		<stop  offset="0.121" style="stop-color:#22DCFD"/>
		<stop  offset="0.5369" style="stop-color:#1C91E2"/>
	</linearGradient>
	<path fill-rule="evenodd" fill="url(#SVGID_00000013189060033425044700000008933146529028016793_)" d="M10.45,14.09
		c0.11,0,0.2,0.09,0.2,0.2c0,0.11-0.09,0.2-0.2,0.2c-0.11,0-0.2-0.09-0.2-0.2C10.25,14.18,10.34,14.09,10.45,14.09z"/>
</g>
</svg>
